# AST/ASF file generated using VICON BodyLanguage
# -----------------------------------------------
:version 1.10
:name VICON
:units
  mass 1.0
  length 0.45
  angle deg
:documentation
   .ast/.asf automatically generated from VICON data using
   VICON BodyBuilder and BodyLanguage model FoxedUp or BRILLIANT.MOD
:root
   order TX TY TZ RX RY RZ
   axis XYZ
   position 0 0 0  
   orientation 0 0 0 
:bonedata
  begin
     id 1 
     name lhipjoint
     direction 0.625129 -0.738222 0.253461 
     length 2.5165 
     axis 0 0 0  XYZ
  end
  begin
     id 2 
     name lfemur
     direction 0.34202 -0.939693 0  
     length 7.54288  
     axis 0 0 20  XYZ
    dof rx ry rz
    limits (-160.0 20.0)
           (-70.0 70.0)
           (-60.0 70.0)
  end
  begin
     id 3 
     name ltibia
     direction 0.34202 -0.939693 0   
     length 7.71864   
     axis 0 0 20   XYZ
    dof rx
    limits (-10.0 170.0)
  end
  begin
     id 4 
     name lfoot
     direction 0.0772037 -0.212115 0.97419   
     length 2.18429   
     axis -90 7.62852e-016 20   XYZ
    dof rx rz
    limits (-45.0 90.0)
           (-70.0 20.0)
  end
  begin
     id 5 
     name ltoes
     direction 1.53513e-011 -4.21834e-011 1   
     length 1.09718   
     axis -90 7.62852e-016 20   XYZ
    dof rx
    limits (-90.0 20.0)
  end
  begin
     id 6 
     name rhipjoint
     direction -0.621946 -0.740623 0.254285   
     length 2.50835  
     axis 0 0 0  XYZ 
  end
  begin
     id 7 
     name rfemur
     direction -0.34202 -0.939693 0   
     length 7.43366   
     axis 0 0 -20   XYZ
    dof rx ry rz
    limits (-160.0 20.0)
           (-70.0 70.0)
           (-70.0 60.0)
  end
  begin
     id 8 
     name rtibia
     direction -0.34202 -0.939693 0   
     length 7.77122   
     axis 0 0 -20   XYZ
    dof rx
    limits (-10.0 170.0)
 end
 begin
     id 9 
     name rfoot
     direction -0.082694 -0.2272 0.970331   
     length 2.2293  
     axis -90 -7.62852e-016 -20   XYZ
    dof rx rz
    limits (-45.0 90.0)
           (-20.0 70.0)
  end
  begin
     id 10 
     name rtoes
     direction -1.53565e-011 -4.21695e-011 1   
     length 1.1178   
     axis -90 -7.62852e-016 -20   XYZ
    dof rx
    limits (-90.0 20.0)
  end
  begin
     id 11 
     name lowerback
     direction -0.000695208 0.988391 -0.151929   
     length 1.95077   
     axis 0 0 0   XYZ
    dof rx ry rz
    limits (-20.0 45.0)
           (-30.0 30.0)
           (-30.0 30.0)
  end
  begin
     id 12 
     name upperback
     direction -0.00268925 0.999885 -0.0149203   
     length 1.96246   
     axis 0 0 0   XYZ
    dof rx ry rz
    limits (-20.0 45.0)
           (-30.0 30.0)
           (-30.0 30.0)
  end
  begin
     id 13 
     name thorax
     direction -0.000848408 0.998481 0.0550912   
     length 2.00867   
     axis 0 0 0   XYZ
    dof rx ry rz
    limits (-20.0 45.0)
           (-30.0 30.0)
           (-30.0 30.0)
  end
  begin
     id 14 
     name lowerneck
     direction -0.00577709 0.998999 0.0443608   
     length 1.75762   
     axis 0 0 0   XYZ
    dof rx ry rz
    limits (-20.0 45.0)
           (-30.0 30.0)
           (-30.0 30.0)
  end
  begin
     id 15 
     name upperneck
     direction 0.0320945 0.999136 0.0264105   
     length 1.72601   
     axis 0 0 0   XYZ
    dof rx ry rz
    limits (-20.0 45.0)
           (-30.0 30.0)
           (-30.0 30.0)
  end
  begin
     id 16
     name head
     direction 0.0120552 0.999916 0.00480151  
     length 1.79973  
     axis 0 0 0   XYZ
    dof rx ry rz
    limits (-20.0 45.0)
           (-30.0 30.0)
           (-30.0 30.0)
  end
  begin
     id 17 
     name lclavicle
     direction 0.909 0.371533 -0.188897  
     length 3.47956  
     axis 0 0 0   XYZ
    dof ry rz
    limits (-20.0 10.0)
           (0.0 20.0)
  end
  begin
     id 18 
     name lhumerus
     direction 1 -4.48963e-011 -6.48352e-028   
     length 5.52302   
     axis 180 -30 -90   XYZ
    dof rx ry rz
    limits (-60.0 90.0)
           (-90.0 90.0)
           (-90.0 90.0)
  end
  begin
     id 19
     name lradius
     direction 1 -4.48968e-011 -4.78536e-027   
     length 3.58675   
     axis 180 -30 -90   XYZ
    dof rx
    limits (-10.0 170.0)
  end
  begin
     id 20
     name lwrist
     direction 1 -4.48942e-011 -9.9435e-027   
     length 1.79337   
     axis 8.54312e-015 90 90   XYZ
    dof ry
    limits (-180.0 0.0)
 end
  begin
     id 21 
     name lhand
     direction 1 -4.4904e-011 -1.9887e-026   
     length 0.536412   
     axis 1.26896e-014 90 90   XYZ
    dof rx rz
    limits (-90.0 90.0)
           (-45.0 45.0)
  end
  begin
     id 22 
     name lfingers
     direction 1 -4.48893e-011 -3.9774e-026   
     length 0.432469   
     axis 2.53792e-014 90 90   XYZ
    dof rx
    limits (0.0 90.0)
  end
  begin
     id 23
     name lthumb
     direction 0.707107 -6.34934e-011 0.707107   
     length 0.620942   
     axis -90 45 2.85299e-015   XYZ
    dof rx rz
    limits (-45.0 45.0)
           (-45.0 45.0)
  end
  begin
     id 24 
     name rclavicle
     direction -0.89595 0.416672 -0.153813   
     length 3.44099  
     axis 0 0 0   XYZ 
    dof ry rz
    limits (-10.0 20.0)
           (-20.0 0.0)
  end
  begin
     id 25 
     name rhumerus
     direction -1 -4.48952e-011 5.57804e-028  
     length 5.8478   
     axis 180 30 90   XYZ
    dof rx ry rz
    limits (-90.0 60.0)
           (-90.0 90.0)
           (-90.0 90.0)
  end
  begin
     id 26 
     name rradius
     direction -1 -4.48967e-011 -7.93646e-027   
     length 3.62717   
     axis 180 30 90   XYZ
    dof rx
    limits (-10.0 170.0)
  end
  begin
     id 27 
     name rwrist
     direction -1 -4.49008e-011 -9.9435e-027   
     length 1.81359   
     axis 8.54312e-015 -90 -90   XYZ
    dof ry
    limits (-180.0 0.0)
  end
  begin
     id 28
     name rhand
     direction -1 -4.48812e-011 -1.9887e-026   
     length 0.650516   
     axis 1.26896e-014 -90 -90   XYZ
    dof rx rz
    limits (-90.0 90.0)
           (-45.0 45.0)
  end
  begin
     id 29
     name rfingers
     direction -1 -4.49228e-011 -3.9774e-026   
     length 0.524463   
     axis 2.53792e-014 -90 -90   XYZ
    dof rx
    limits (0.0 90.0)
  end
  begin
     id 30
     name rthumb
     direction -0.707107 -6.34912e-011 0.707107   
     length 0.753027   
     axis -90 -45 -2.85299e-015   XYZ
    dof rx rz
    limits (-45.0 45.0)
           (-45.0 45.0)
  end
:hierarchy
  begin
    root lhipjoint rhipjoint lowerback
    lhipjoint lfemur
    lfemur ltibia
    ltibia lfoot
    lfoot ltoes
    rhipjoint rfemur
    rfemur rtibia
    rtibia rfoot
    rfoot rtoes
    lowerback upperback
    upperback thorax
    thorax lowerneck lclavicle rclavicle
    lowerneck upperneck
    upperneck head
    lclavicle lhumerus
    lhumerus lradius
    lradius lwrist
    lwrist lhand lthumb
    lhand lfingers
    rclavicle rhumerus
    rhumerus rradius
    rradius rwrist
    rwrist rhand rthumb
    rhand rfingers
  end

#!OML:ASF F:\VICON\USERDATA\INSTALL\rory3\rory3.ASF
:FULLY-SPECIFIED
:DEGREES
1
root 0.0501492 17.0635 -27.6745 2.93363 1.26833 0.390838
lowerback 17.9192 -0.167102 -3.95183
upperback 2.74543 -1.13641 -2.09485
thorax -7.05232 -0.474811 0.266476
lowerneck -6.7349 -0.893584 -2.19177
upperneck -9.84383 -0.800211 4.54757
head -1.93401 -0.399522 1.81571
rclavicle 4.77083e-015 -1.11319e-014
rhumerus -47.6576 10.3354 -89.4373
rradius 85.7985
rwrist 2.83048
rhand -42.1547 37.7155
rfingers 7.12502
rthumb -15.0442 8.28208
lclavicle 4.77083e-015 -1.11319e-014
lhumerus -20.6785 -18.655 87.6735
lradius 115.101
lwrist 29.0591
lhand -38.5402 12.0057
lfingers 7.12502
lthumb -11.5603 41.6669
rfemur -18.1192 -6.49198 17.8147
rtibia 102.661
rfoot 13.9186 -7.74528
rtoes 8.19683
lfemur -19.0939 0.386903 -26.058
ltibia 46.0828
lfoot -21.2158 0.770442
ltoes -10.1747
2
root 0.0621125 17.0272 -27.2041 3.20839 0.966994 0.423291
lowerback 18.5299 -0.209318 -4.01547
upperback 1.86732 -1.27128 -2.00261
thorax -8.33326 -0.506353 0.439451
lowerneck -5.07993 -0.741443 -2.25574
upperneck -9.99007 -0.629296 4.28679
head -2.27375 -0.326464 1.7587
rclavicle -2.127e-014 1.19271e-014
rhumerus -50.4178 9.63201 -89.4294
rradius 85.9702
rwrist 2.64863
rhand -41.3372 37.6216
rfingers 7.12502
rthumb -14.2566 8.13094
lclavicle -2.127e-014 1.19271e-014
lhumerus -19.7704 -19.3138 87.6192
lradius 115.598
lwrist 28.5127
lhand -38.1579 10.6944
lfingers 7.12502
lthumb -11.1916 40.3759
rfemur -21.5195 -6.40416 17.7897
rtibia 104.079
rfoot 13.0364 -7.52761
rtoes 7.44781
lfemur -17.2316 0.560724 -26.1621
ltibia 45.6359
lfoot -22.4791 1.76756
ltoes -14.4264
3
root 0.0709308 17.0162 -26.732 3.33772 0.793907 0.629564
lowerback 18.2858 -0.428168 -4.14225
upperback 1.76212 -1.57983 -2.05147
thorax -8.30125 -0.650566 0.532907
lowerneck -4.10604 -0.522235 -2.36895
upperneck -10.4465 -0.335381 4.27487
head -2.60947 -0.188738 1.78862
rclavicle 8.34896e-015 1.35174e-014
rhumerus -51.7529 9.18731 -89.4884
rradius 85.9697
rwrist 2.32911
rhand -39.5375 38.5908
rfingers 7.12502
rthumb -12.5219 8.98599
lclavicle 8.34896e-015 1.35174e-014
lhumerus -17.8613 -19.6671 86.8644
lradius 116.177
lwrist 28.5945
lhand -37.338 9.31926
lfingers 7.12502
lthumb -10.4007 39.042
rfemur -24.6636 -6.46903 17.5773
rtibia 104.808
rfoot 12.384 -6.94856
rtoes 6.85665
lfemur -14.9716 0.632594 -26.4372
ltibia 44.5986
lfoot -22.9958 1.7137
ltoes -16.0321
4
root 0.0785725 17.0366 -26.2472 3.45238 0.81916 0.744753
lowerback 18.3597 -0.74123 -4.1077
upperback 1.56664 -2.00286 -2.10325
thorax -8.54342 -0.848642 0.564756
lowerneck -3.72542 -0.314349 -2.45996
upperneck -10.4789 -0.0487626 4.42477
head -2.70109 -0.0510145 1.85552
rclavicle 9.93923e-016 1.98785e-014
rhumerus -53.0241 8.87279 -89.6375
rradius 85.9689
rwrist 2.09305
rhand -38.8512 38.4736
rfingers 7.12502
rthumb -11.8601 8.82944
lclavicle 9.93923e-016 1.98785e-014
lhumerus -16.3054 -19.9441 86.0985
lradius 116.951
lwrist 28.9258
lhand -37.3473 8.93786
lfingers 7.12502
lthumb -10.4097 38.6602
rfemur -27.5385 -6.56095 17.6078
rtibia 105
rfoot 11.2448 -6.32786
rtoes 4.75171
lfemur -12.6215 0.566222 -26.5807
ltibia 43.5277
lfoot -23.1131 2.36991
ltoes -17.5871
5
root 0.0787538 17.0682 -25.7568 3.60991 1.02649 0.86313
lowerback 18.4595 -1.13965 -4.09927
upperback 1.3628 -2.54332 -2.1293
thorax -8.80391 -1.10021 0.6715
lowerneck -3.63245 -0.0782852 -2.59556
upperneck -10.2908 0.280114 4.65586
head -2.67054 0.11153 1.95127
rclavicle -2.8625e-014 -3.97569e-015
rhumerus -54.1141 8.75115 -89.8125
rradius 85.9943
rwrist 1.90685
rhand -39.853 36.5335
rfingers 7.12502
rthumb -12.8261 6.94754
lclavicle -2.8625e-014 -3.97569e-015
lhumerus -14.8225 -20.1244 85.3866
lradius 117.848
lwrist 29.0466
lhand -37.6521 8.80012
lfingers 7.12502
lthumb -10.7037 38.5075
rfemur -30.1766 -6.56525 17.7752
rtibia 104.643
rfoot 12.7462 -5.73134
rtoes 14.1529
lfemur -10.2279 0.299331 -26.6616
ltibia 42.1629
lfoot -22.4154 2.82899
ltoes -17.2631
6
root 0.0792483 17.1138 -25.2581 3.80505 0.896281 0.963376
lowerback 18.3606 -1.41915 -4.31333
upperback 1.25495 -2.94661 -2.04259
thorax -8.83677 -1.28093 0.986034
lowerneck -3.9938 0.213232 -2.77057
upperneck -9.94022 0.678333 4.79177
head -2.50812 0.318908 2.01773
rclavicle -1.76918e-014 -9.54166e-015
rhumerus -55.0083 8.82225 -89.8706
rradius 86.1937
rwrist 1.75071
rhand -41.7645 35.4335
rfingers 7.12502
rthumb -14.6683 5.97232
lclavicle -1.76918e-014 -9.54166e-015
lhumerus -13.2448 -20.116 84.7674
lradius 118.712
lwrist 29.1534
lhand -37.9079 7.67303
lfingers 7.12502
lthumb -10.9504 37.3675
rfemur -32.6572 -6.0403 18.0439
rtibia 103.759
rfoot 12.5928 -5.03225
rtoes 16.9468
lfemur -7.79086 0.323837 -26.7611
ltibia 40.5153
lfoot -21.1841 3.16767
ltoes -18.1292
7
root 0.0815643 17.1805 -24.7515 3.92495 0.638171 1.33595
lowerback 18.2695 -1.61167 -4.78433
upperback 1.20506 -3.29514 -2.06125
thorax -8.8008 -1.42972 1.3156
lowerneck -4.46832 0.412936 -2.66853
upperneck -9.58698 0.932844 4.69897
head -2.3151 0.451558 1.96113
rclavicle 2.52457e-014 2.94201e-014
rhumerus -55.8775 8.85585 -89.9598
rradius 86.5186
rwrist 1.55388
rhand -42.7785 35.5016
rfingers 7.12502
rthumb -15.645 6.11423
lclavicle 2.52457e-014 2.94201e-014
lhumerus -12.0086 -20.1057 84.1781
lradius 119.633
lwrist 29.0626
lhand -37.8961 6.5219
lfingers 7.12502
lthumb -10.939 36.2169
rfemur -34.8409 -5.42357 17.9334
rtibia 102.366
rfoot 10.854 -4.02805
rtoes 12.9018
lfemur -5.20613 0.50229 -27.2158
ltibia 38.7069
lfoot -20.1682 3.31344
ltoes -23.4722
8
root 0.074866 17.2544 -24.2367 3.88287 0.953812 1.80759
lowerback 18.3138 -2.01884 -5.23934
upperback 1.06753 -3.93794 -2.09489
thorax -8.9152 -1.7135 1.69847
lowerneck -4.05376 0.627847 -2.70358
upperneck -9.54806 1.21424 4.71708
head -2.3881 0.587444 1.97206
rclavicle 4.51241e-014 6.36111e-015
rhumerus -56.9469 9.02807 -90.1147
rradius 86.7429
rwrist 1.34554
rhand -42.55 35.3606
rfingers 7.12502
rthumb -15.4249 5.95611
lclavicle 4.51241e-014 6.36111e-015
lhumerus -11.5531 -20.0762 83.8007
lradius 120.651
lwrist 28.5631
lhand -37.6836 7.55846
lfingers 7.12502
lthumb -10.7341 37.2642
rfemur -36.4324 -5.32398 17.6922
rtibia 100.457
rfoot 8.93062 -3.18344
rtoes 8.96582
lfemur -2.38074 0.209455 -27.6269
ltibia 36.7438
lfoot -18.5491 2.92585
ltoes -27.2953
9
root 0.0603139 17.3258 -23.7165 4.02659 1.34351 1.87457
lowerback 18.073 -2.43002 -5.42641
upperback 0.96619 -4.49206 -1.94663
thorax -8.83164 -1.96918 2.08857
lowerneck -4.19556 0.837208 -2.87082
upperneck -9.13886 1.49754 4.87788
head -2.24418 0.734989 2.04947
rclavicle 2.82274e-014 3.97569e-015
rhumerus -57.8319 9.14994 -90.1178
rradius 86.9271
rwrist 1.17905
rhand -42.2514 35.9457
rfingers 7.12502
rthumb -15.1373 6.51925
lclavicle 2.82274e-014 3.97569e-015
lhumerus -10.8269 -20.1253 83.4422
lradius 121.539
lwrist 28.2427
lhand -37.5667 7.94968
lfingers 7.12502
lthumb -10.6214 37.6612
rfemur -38.0261 -5.15231 18.0277
rtibia 98.1377
rfoot 7.96937 -2.3773
rtoes 8.86001
lfemur 0.221835 -0.15836 -27.4704
ltibia 34.733
lfoot -16.153 1.86657
ltoes -28.7689
10
root 0.0456615 17.4189 -23.1824 4.314 1.08761 1.61608
lowerback 17.3458 -2.47195 -5.32619
upperback 1.31449 -4.45563 -1.95173
thorax -8.0563 -1.98978 1.96657
lowerneck -6.04673 0.792323 -2.15623
upperneck -8.36133 1.40142 4.73153
head -1.65444 0.695561 1.86901
rclavicle -3.37934e-015 -6.36111e-015
rhumerus -57.7437 8.50446 -90.1689
rradius 87.0694
rwrist 1.13753
rhand -42.5533 36.0489
rfingers 7.12502
rthumb -15.4282 6.64463
lclavicle -3.37934e-015 -6.36111e-015
lhumerus -8.86732 -20.8112 82.4178
lradius 122.251
lwrist 28.2227
lhand -36.8521 6.47607
lfingers 7.12502
lthumb -9.93199 36.2218
rfemur -39.5819 -4.19204 18.7345
rtibia 95.3405
rfoot 7.70867 -1.68989
rtoes 10.9787
lfemur 2.5324 0.00631115 -26.9675
ltibia 32.7231
lfoot -13.3738 0.015086
ltoes -27.4167
